<?xml version="1.0" encoding="iso-8859-1"?>
<!-- Generator: Adobe Illustrator 19.0.0, SVG Export Plug-In . SVG Version: 6.00 Build 0)  -->
<svg xmlns="http://www.w3.org/2000/svg" xmlns:xlink="http://www.w3.org/1999/xlink" version="1.1" id="Layer_1" x="0px" y="0px" viewBox="0 0 512 512" style="enable-background:new 0 0 512 512;" xml:space="preserve" width="512px" height="512px">
<g>
	<g>
		<path d="M494.953,254.114c-16.96-7.577-35.354-8.287-53.2-2.054c-15.029,5.251-29.026,15.181-40.616,28.792L356.38,309.08    c-7.753-12.538-21.622-20.913-37.415-20.913H264.14c-9.151-8.993-29.795-23.177-68.963-23.177    c-49.747,0-71.056,21.048-75.336,25.942l-17.687,18.08l-9.371-17.949L0,339.501l89.918,172.234l92.784-48.44l-9.776-18.726    h170.419l100.05-73.069L512,261.731L494.953,254.114z M102.621,471.28L40.455,352.204l39.626-20.688l62.166,119.076    L102.621,471.28z M421.037,350.7l-87.475,63.886H157.273l-40.523-77.62l24.88-25.433l0.339-0.219l0.56-0.773    c1.586-1.689,15.758-15.571,52.649-15.571c35.716,0,48.13,14.498,49.595,16.388l3.789,6.789h70.402    c7.709,0,13.979,6.271,13.979,13.98c0,7.709-6.271,13.98-13.979,13.98h-92.182v29.983h92.182    c21.217,0,38.972-15.108,43.071-35.131l59.178-37.323l1.552-1.906c10.419-12.801,26.279-24.055,43.789-23.859L421.037,350.7z" fill="#FFFFFF"/>
	</g>
</g>
<g>
	<g>
		<path d="M426.243,66.852c0-36.716-29.871-66.587-66.587-66.587S293.07,30.136,293.07,66.852    c0.001,31.559,22.078,58.042,51.595,64.863v144.268h29.983v-8.866h15.084v-29.983h-15.084v-8.495h24.492v-29.983h-24.492v-66.94    C404.165,124.895,426.243,98.412,426.243,66.852z M359.657,103.454c-20.183,0-36.603-16.42-36.603-36.603    c0-20.183,16.42-36.603,36.603-36.603c20.183,0,36.604,16.42,36.604,36.603C396.261,87.034,379.84,103.454,359.657,103.454z" fill="#FFFFFF"/>
	</g>
</g>
<g>
</g>
<g>
</g>
<g>
</g>
<g>
</g>
<g>
</g>
<g>
</g>
<g>
</g>
<g>
</g>
<g>
</g>
<g>
</g>
<g>
</g>
<g>
</g>
<g>
</g>
<g>
</g>
<g>
</g>
</svg>
