<?xml version="1.0"?>
<svg xmlns="http://www.w3.org/2000/svg" xmlns:xlink="http://www.w3.org/1999/xlink" version="1.1" id="Capa_1" x="0px" y="0px" viewBox="0 0 324.562 324.562" style="enable-background:new 0 0 324.562 324.562;" xml:space="preserve" width="512px" height="512px" class=""><g transform="matrix(6.12323e-17 -1 1 6.12323e-17 0 324.562)"><g>
	<path d="M324.555,67.225L257.324,0l-55.901,55.907l-21.35-21.356L12.012,202.612C4.267,210.357,0,220.659,0.006,231.617   c0,10.951,4.267,21.254,12.005,28.991l51.955,51.955c7.738,7.738,18.034,11.999,28.979,11.999c10.951,0,21.254-4.267,28.998-12.012   l168.055-168.049l-21.356-21.356L324.555,67.225z M298.963,69.326l-21.581,21.581l-11.928-11.922l21.581-21.588L298.963,69.326z    M255.229,25.592l11.922,11.922l-21.581,21.588l-11.928-11.928L255.229,25.592z M271.823,144.495L112.849,303.462   c-5.315,5.321-12.391,8.246-19.91,8.246c-7.513,0-14.582-2.924-19.891-8.233l-51.948-51.961   c-5.315-5.315-8.239-12.385-8.239-19.904c0-7.526,2.924-14.595,8.239-19.917L180.067,52.719L271.823,144.495z" data-original="#000000" class="active-path" data-old_color="#ffffff" fill="#ffffff"/>
</g></g> </svg>
